<svg id="perfection" xmlns="http://www.w3.org/2000/svg" width="18.86in" height="18.86in" viewBox="0 0 1358 1358">
  <defs>
    <style>
      .cls-1, .cls-2 {
        fill: #fff;
      }

      .cls-2 {
        stroke: #fff;
      }
    </style>
  </defs>
  <title>jca_logo</title>
  <path class="cls-1" d="M3443,136.62c-375,0-679,304-679,679a683.85,683.85,0,0,0,8.63,108.5l5.37-16.39c31.62-61,83.72-111.75,143.68-153.47C2922.24,554.4,2951,468.39,2951,468.39s44-44.5,139.65-95.51c0,0-47.24,87.85-59.68,317.88,150-73.38,303-102.37,303-102.37l121,111c-186.74,3-325.16,29.65-426.61,63.57q-0.38,20.59-.39,42.43c0,238.49,97.67,462.74,313.83,681.73a684.4,684.4,0,0,0,101.17,7.5c375,0,679-304,679-679S3818,136.62,3443,136.62Z" transform="translate(-2764.01 -136.62)"/>
  <path class="cls-1" d="M2926.92,804.5c-117.06,58.24-153.92,119-154.27,119.62,46.66,290.53,277.63,519.44,569.19,563l-26.49-11.73S2976.48,1257.81,2926.92,804.5Z" transform="translate(-2764.01 -136.62)"/>
  <polygon class="cls-2" points="8.63 787.52 8.63 787.5 8.63 787.5 8.63 787.52"/>
</svg>
