<svg id="Layer_1" data-name="Layer 1" xmlns="http://www.w3.org/2000/svg" width="1.25in" height="0.53in" viewBox="0 0 89.81 37.9">
  <defs>
    <style>
      .cls-1 {
        fill: #fff;
      }
    </style>
  </defs>
  <title>jca_logo_word</title>
  <path class="cls-1" d="M644.09,303.65h-2.52v-1.46h6.81v1.46h-2.51v6.8h-1.79v-6.8Z" transform="translate(-641.57 -301.69)"/>
  <path class="cls-1" d="M651.32,301.69V305a2,2,0,0,1,1.77-.89c1.15,0,2.08.7,2.08,2.37v4h-1.7v-3.73a1,1,0,0,0-1-1.24c-1,0-1.14.72-1.14,1.67v3.3H649.6v-8.76h1.73Z" transform="translate(-641.57 -301.69)"/>
  <path class="cls-1" d="M658.37,307.71a1.35,1.35,0,0,0,1.25,1.54,1,1,0,0,0,1.09-.66h1.71a2.72,2.72,0,0,1-2.84,2,2.86,2.86,0,0,1-2.94-3.15c0-2,1-3.35,3-3.35s2.85,1.55,2.85,3.09a3.57,3.57,0,0,1,0,.53h-4.1Zm2.4-1.06a1.14,1.14,0,0,0-1.14-1.33,1.22,1.22,0,0,0-1.22,1.33h2.36Z" transform="translate(-641.57 -301.69)"/>
  <path class="cls-1" d="M645.36,321.8c0,1.91-.62,2.77-2.43,2.77a5,5,0,0,1-1.12-.11V323a7.3,7.3,0,0,0,.82,0,0.93,0.93,0,0,0,.95-1.18v-5.73h1.79v5.61Z" transform="translate(-641.57 -301.69)"/>
  <path class="cls-1" d="M653,321.33a3.08,3.08,0,1,1-3-3.24A3,3,0,0,1,653,321.33Zm-4.4,0c0,1.2.52,1.91,1.34,1.91s1.32-.71,1.32-1.9-0.48-1.91-1.34-1.91S648.64,320,648.64,321.34Z" transform="translate(-641.57 -301.69)"/>
  <path class="cls-1" d="M660,322.65c0,0.59,0,1.25,0,1.8h-1.68c0-.17,0-0.5,0-0.72a1.77,1.77,0,0,1-1.71.86c-1.26,0-2.06-.77-2.06-2.3v-4.05h1.71v3.71a1,1,0,0,0,1,1.25c0.78,0,1.1-.42,1.1-1.64v-3.31H660v4.41Z" transform="translate(-641.57 -301.69)"/>
  <path class="cls-1" d="M661.77,319.93c0-.62,0-1.16,0-1.69h1.69c0,0.14,0,.76,0,1.09a2,2,0,0,1,2-1.24v1.64c-1.25,0-2,.3-2,2v2.71h-1.73v-4.52Z" transform="translate(-641.57 -301.69)"/>
  <path class="cls-1" d="M666.7,319.81c0-.53,0-1.1,0-1.57h1.67c0,0.17.06,0.6,0.07,0.79a1.89,1.89,0,0,1,1.8-.94c1.25,0,2.05.85,2.05,2.41v3.95h-1.71v-3.75a1,1,0,0,0-1-1.21c-0.73,0-1.14.41-1.14,1.51v3.45H666.7v-4.64Z" transform="translate(-641.57 -301.69)"/>
  <path class="cls-1" d="M675.47,321.71a1.35,1.35,0,0,0,1.25,1.54,1,1,0,0,0,1.09-.66h1.71a2.72,2.72,0,0,1-2.84,2,2.86,2.86,0,0,1-2.94-3.15c0-2,1-3.35,3-3.35s2.85,1.55,2.85,3.09a3.64,3.64,0,0,1,0,.53h-4.1Zm2.4-1.06a1.14,1.14,0,0,0-1.14-1.33,1.22,1.22,0,0,0-1.22,1.33h2.36Z" transform="translate(-641.57 -301.69)"/>
  <path class="cls-1" d="M682,318.24c0.64,2.15,1.2,4.05,1.3,4.63h0c0.13-.62.5-2,1.24-4.63h1.71l-2.09,6.39c-0.59,1.79-1.09,2.31-2.58,2.31a7.85,7.85,0,0,1-.8,0v-1.38l0.44,0a1.09,1.09,0,0,0,1.19-.9l-2.27-6.4H682Z" transform="translate(-641.57 -301.69)"/>
  <path class="cls-1" d="M697.85,321.89a3.31,3.31,0,0,1-3.56,2.67c-2.63,0-3.86-1.86-3.86-4.21s1.28-4.29,3.95-4.29a3.16,3.16,0,0,1,3.48,2.67h-1.79a1.64,1.64,0,0,0-1.75-1.28c-1.48,0-2,1.33-2,2.84s0.49,2.87,2.09,2.87a1.63,1.63,0,0,0,1.69-1.27h1.8Z" transform="translate(-641.57 -301.69)"/>
  <path class="cls-1" d="M701.17,315.69V319a2,2,0,0,1,1.77-.89c1.15,0,2.08.7,2.08,2.37v4h-1.7v-3.73a1,1,0,0,0-1-1.24c-1,0-1.14.72-1.14,1.67v3.3h-1.73v-8.76h1.73Z" transform="translate(-641.57 -301.69)"/>
  <path class="cls-1" d="M712.26,322.65c0,0.59,0,1.25,0,1.8H710.6c0-.17,0-0.5,0-0.72a1.77,1.77,0,0,1-1.71.86c-1.26,0-2.06-.77-2.06-2.3v-4.05h1.71v3.71a1,1,0,0,0,1,1.25c0.78,0,1.1-.42,1.1-1.64v-3.31h1.72v4.41Z" transform="translate(-641.57 -301.69)"/>
  <path class="cls-1" d="M714.07,319.93c0-.62,0-1.16,0-1.69h1.69c0,0.14,0,.76,0,1.09a2,2,0,0,1,2-1.24v1.64c-1.25,0-2,.3-2,2v2.71h-1.73v-4.52Z" transform="translate(-641.57 -301.69)"/>
  <path class="cls-1" d="M724.4,322.45a2.57,2.57,0,0,1-2.78,2.15c-1.93,0-2.93-1.33-2.93-3.2a3,3,0,0,1,3-3.3,2.45,2.45,0,0,1,2.7,2.21h-1.67a1,1,0,0,0-1.07-.85c-0.79,0-1.24.68-1.24,1.88s0.48,1.93,1.22,1.93a1.06,1.06,0,0,0,1.07-.82h1.68Z" transform="translate(-641.57 -301.69)"/>
  <path class="cls-1" d="M727.53,315.69V319a2,2,0,0,1,1.77-.89c1.15,0,2.08.7,2.08,2.37v4h-1.7v-3.73a1,1,0,0,0-1-1.24c-1,0-1.14.72-1.14,1.67v3.3h-1.73v-8.76h1.73Z" transform="translate(-641.57 -301.69)"/>
  <path class="cls-1" d="M648,336.33a3.08,3.08,0,1,1-3-3.24A3,3,0,0,1,648,336.33Zm-4.4,0c0,1.2.52,1.91,1.34,1.91s1.32-.71,1.32-1.9-0.48-1.91-1.34-1.91S643.6,335,643.6,336.34Z" transform="translate(-641.57 -301.69)"/>
  <path class="cls-1" d="M649.7,339.45v-4.92h-0.91v-1.29h0.91V332.7a1.86,1.86,0,0,1,2-2.12,3.57,3.57,0,0,1,.79.07V332l-0.36,0c-0.5,0-.7.18-0.7,0.85v0.41h1.08v1.29h-1.08v4.92H649.7Z" transform="translate(-641.57 -301.69)"/>
  <path class="cls-1" d="M658.67,337.54L658,339.45h-1.76l2.81-8.26h2.24l2.94,8.26h-1.88l-0.68-1.91h-3Zm2.64-1.46c-0.59-1.75-1-2.87-1.16-3.61h0c-0.2.82-.61,2.11-1.08,3.61h2.25Z" transform="translate(-641.57 -301.69)"/>
  <path class="cls-1" d="M664.67,333.24h1v-1.68h1.71v1.68h1.22v1.29h-1.22v3.07a0.54,0.54,0,0,0,.66.65h0.38v1.18a3.72,3.72,0,0,1-1.15.12,1.45,1.45,0,0,1-1.61-1.74v-3.26h-1v-1.29Z" transform="translate(-641.57 -301.69)"/>
  <path class="cls-1" d="M669.94,339.45v-8.76h1.73v8.76h-1.73Z" transform="translate(-641.57 -301.69)"/>
  <path class="cls-1" d="M678.64,337.84a13.79,13.79,0,0,0,.08,1.61h-1.64a2.41,2.41,0,0,1-.08-0.61,1.84,1.84,0,0,1-1.75.76,1.91,1.91,0,0,1-2.12-1.94c0-1.42,1.13-2.08,3-2.08H677V335.2a0.8,0.8,0,0,0-1-.88,0.79,0.79,0,0,0-1,.76h-1.63c0.08-1.1.77-2,2.66-2,1.65,0,2.57.66,2.57,2.15v2.6ZM677,336.62h-0.7c-1,0-1.43.32-1.43,0.92a0.8,0.8,0,0,0,.9.83c1.09,0,1.22-.77,1.22-1.58v-0.17Z" transform="translate(-641.57 -301.69)"/>
  <path class="cls-1" d="M680.44,334.81c0-.53,0-1.1,0-1.57h1.67c0,0.17.06,0.6,0.07,0.79a1.89,1.89,0,0,1,1.8-.94c1.25,0,2.05.85,2.05,2.41v3.95H684.3v-3.75a1,1,0,0,0-1-1.21c-0.73,0-1.14.41-1.14,1.51v3.45h-1.73v-4.64Z" transform="translate(-641.57 -301.69)"/>
  <path class="cls-1" d="M687.15,333.24h1v-1.68h1.71v1.68H691v1.29h-1.22v3.07a0.54,0.54,0,0,0,.66.65h0.38v1.18a3.72,3.72,0,0,1-1.15.12,1.45,1.45,0,0,1-1.61-1.74v-3.26h-1v-1.29Z" transform="translate(-641.57 -301.69)"/>
  <path class="cls-1" d="M697.51,337.84a13.79,13.79,0,0,0,.08,1.61H696a2.44,2.44,0,0,1-.08-0.61,1.84,1.84,0,0,1-1.75.76,1.91,1.91,0,0,1-2.12-1.94c0-1.42,1.13-2.08,3-2.08h0.89V335.2a0.8,0.8,0,0,0-1-.88,0.79,0.79,0,0,0-1,.76h-1.63c0.08-1.1.77-2,2.66-2,1.66,0,2.57.66,2.57,2.15v2.6Zm-1.68-1.22h-0.7c-1,0-1.43.32-1.43,0.92a0.8,0.8,0,0,0,.9.83c1.09,0,1.22-.77,1.22-1.58v-0.17Z" transform="translate(-641.57 -301.69)"/>
</svg>
