<svg id="perfection" xmlns="http://www.w3.org/2000/svg" width="1357.89" height="1357.92" viewBox="0 0 1357.89 1357.92">
  <defs>
    <style>
      .cls-1 {
        fill: #666;
      }
    </style>
  </defs>
  <title>jca_favicon</title>
  <path class="cls-1" d="M679,0C304,0,0,304,0,679A683.79,683.79,0,0,0,8.62,787.45L14,771.06c31.62-61,83.72-111.74,143.67-153.46C158.22,417.76,187,331.75,187,331.75s44-44.5,139.64-95.5c0,0-47.24,87.84-59.68,317.86,150-73.38,303-102.36,303-102.36l121,111c-186.73,3-325.14,29.65-426.58,63.57q-0.38,20.59-.39,42.43c0,238.48,97.66,462.71,313.81,681.69a684.36,684.36,0,0,0,101.16,7.5c375,0,679-304,679-679S1053.93,0,679,0Z" transform="translate(0.01)"/>
  <path class="cls-1" d="M162.9,667.84C45.85,726.08,9,786.83,8.64,787.45c46.66,290.51,277.61,519.41,569.16,563l-26.49-11.73S212.46,1121.12,162.9,667.84Z" transform="translate(0.01)"/>
  <polygon class="cls-1" points="8.64 787.47 8.64 787.45 8.64 787.45 8.64 787.47"/>
</svg>
